<mxfile host="app.diagrams.net" agent="Mozilla/5.0 (Windows NT 10.0; Win64; x64; rv:131.0) Gecko/20100101 Firefox/131.0" version="24.7.12">
  <diagram name="Page-1" id="qwtAJc5p4VbjAlMombyB">
    <mxGraphModel>
      <root>
        <mxCell id="0" />
        <mxCell id="1" parent="0" />
        <mxCell id="2" value="Server-Side" style="whiteSpace=wrap;strokeWidth=2;verticalAlign=top;" vertex="1" parent="1">
          <mxGeometry width="235" height="251" as="geometry" />
        </mxCell>
        <mxCell id="3" value="Server" style="whiteSpace=wrap;strokeWidth=2;" vertex="1" parent="1">
          <mxGeometry x="45" y="109" width="60" height="34" as="geometry" />
        </mxCell>
        <mxCell id="4" value="Backend" style="whiteSpace=wrap;strokeWidth=2;" vertex="1" parent="1">
          <mxGeometry x="86" y="25" width="75" height="34" as="geometry" />
        </mxCell>
        <mxCell id="5" value="Database" style="whiteSpace=wrap;strokeWidth=2;" vertex="1" parent="1">
          <mxGeometry x="35" y="192" width="81" height="34" as="geometry" />
        </mxCell>
        <mxCell id="6" value="APIs" style="whiteSpace=wrap;strokeWidth=2;" vertex="1" parent="1">
          <mxGeometry x="155" y="109" width="44" height="34" as="geometry" />
        </mxCell>
        <mxCell id="7" value="Client-Side" style="whiteSpace=wrap;strokeWidth=2;verticalAlign=top;" vertex="1" parent="1">
          <mxGeometry x="255" width="361" height="251" as="geometry" />
        </mxCell>
        <mxCell id="8" value="UI/UX Design" style="whiteSpace=wrap;strokeWidth=2;" vertex="1" parent="1">
          <mxGeometry x="367" y="109" width="109" height="34" as="geometry" />
        </mxCell>
        <mxCell id="9" value="Frontend" style="whiteSpace=wrap;strokeWidth=2;" vertex="1" parent="1">
          <mxGeometry x="372" y="25" width="80" height="34" as="geometry" />
        </mxCell>
        <mxCell id="10" value="HTML" style="whiteSpace=wrap;strokeWidth=2;" vertex="1" parent="1">
          <mxGeometry x="297" y="192" width="54" height="34" as="geometry" />
        </mxCell>
        <mxCell id="11" value="CSS" style="whiteSpace=wrap;strokeWidth=2;" vertex="1" parent="1">
          <mxGeometry x="402" y="192" width="40" height="34" as="geometry" />
        </mxCell>
        <mxCell id="12" value="JavaScript" style="whiteSpace=wrap;strokeWidth=2;" vertex="1" parent="1">
          <mxGeometry x="492" y="192" width="89" height="34" as="geometry" />
        </mxCell>
        <mxCell id="13" value="" style="curved=1;startArrow=none;endArrow=block;exitX=0.55;exitY=0.99;entryX=0.5;entryY=-0.01;" edge="1" parent="1" source="9" target="8">
          <mxGeometry relative="1" as="geometry">
            <Array as="points">
              <mxPoint x="422" y="84" />
            </Array>
          </mxGeometry>
        </mxCell>
        <mxCell id="14" value="" style="curved=1;startArrow=none;endArrow=block;exitX=0.14;exitY=0.98;entryX=0.51;entryY=0.01;" edge="1" parent="1" source="8" target="10">
          <mxGeometry relative="1" as="geometry">
            <Array as="points">
              <mxPoint x="325" y="167" />
            </Array>
          </mxGeometry>
        </mxCell>
        <mxCell id="15" value="" style="curved=1;startArrow=none;endArrow=block;exitX=0.5;exitY=0.98;entryX=0.49;entryY=0.01;" edge="1" parent="1" source="8" target="11">
          <mxGeometry relative="1" as="geometry">
            <Array as="points" />
          </mxGeometry>
        </mxCell>
        <mxCell id="16" value="" style="curved=1;startArrow=none;endArrow=block;exitX=0.92;exitY=0.98;entryX=0.49;entryY=0.01;" edge="1" parent="1" source="8" target="12">
          <mxGeometry relative="1" as="geometry">
            <Array as="points">
              <mxPoint x="536" y="167" />
            </Array>
          </mxGeometry>
        </mxCell>
        <mxCell id="17" value="" style="curved=1;startArrow=none;endArrow=block;exitX=0.24;exitY=0.99;entryX=0.5;entryY=-0.01;" edge="1" parent="1" source="4" target="3">
          <mxGeometry relative="1" as="geometry">
            <Array as="points">
              <mxPoint x="75" y="84" />
            </Array>
          </mxGeometry>
        </mxCell>
        <mxCell id="18" value="" style="curved=1;startArrow=none;endArrow=block;exitX=0.5;exitY=0.98;entryX=0.5;entryY=0.01;" edge="1" parent="1" source="3" target="5">
          <mxGeometry relative="1" as="geometry">
            <Array as="points" />
          </mxGeometry>
        </mxCell>
        <mxCell id="19" value="" style="curved=1;startArrow=none;endArrow=block;exitX=0.52;exitY=0.99;entryX=0.05;entryY=-0.01;" edge="1" parent="1" source="4" target="6">
          <mxGeometry relative="1" as="geometry">
            <Array as="points">
              <mxPoint x="126" y="84" />
            </Array>
          </mxGeometry>
        </mxCell>
        <mxCell id="20" value="" style="curved=1;startArrow=none;endArrow=block;exitX=0;exitY=0.94;entryX=1.02;entryY=0.27;" edge="1" parent="1" source="9" target="6">
          <mxGeometry relative="1" as="geometry">
            <Array as="points">
              <mxPoint x="302" y="84" />
            </Array>
          </mxGeometry>
        </mxCell>
        <mxCell id="21" value="" style="curved=1;startArrow=none;endArrow=block;exitX=0.51;exitY=-0.01;entryX=0.79;entryY=0.99;" edge="1" parent="1" source="6" target="4">
          <mxGeometry relative="1" as="geometry">
            <Array as="points">
              <mxPoint x="178" y="84" />
            </Array>
          </mxGeometry>
        </mxCell>
      </root>
    </mxGraphModel>
  </diagram>
</mxfile>
